<svg preserveAspectRatio="none" width="100%" height="100%" overflow="visible" style="display: block;" viewBox="0 0 28 28" fill="none" xmlns="http://www.w3.org/2000/svg">
<g id="Frame">
<path id="Vector" d="M23.9167 7H11.0833C10.1168 7 9.33333 7.7835 9.33333 8.75V15.75C9.33333 16.7165 10.1168 17.5 11.0833 17.5H23.9167C24.8832 17.5 25.6667 16.7165 25.6667 15.75V8.75C25.6667 7.7835 24.8832 7 23.9167 7Z" stroke="var(--stroke-0, #FF9145)" stroke-width="2" stroke-linejoin="round"/>
<path id="Vector_2" d="M14 10.5V14" stroke="var(--stroke-0, #FF9145)" stroke-width="2" stroke-linecap="round"/>
<path id="Vector_3" d="M21 10.5V14" stroke="var(--stroke-0, #FF9145)" stroke-width="2" stroke-linecap="round"/>
<path id="Vector_4" d="M21 7V3.5H14V7" stroke="var(--stroke-0, #FF9145)" stroke-width="2" stroke-linecap="round" stroke-linejoin="round"/>
<path id="Vector_5" d="M25.6667 21H7C6.35565 21 5.83333 20.4777 5.83333 19.8333V6.41667C5.83333 5.77233 5.311 5.25 4.66667 5.25H2.33333" stroke="var(--stroke-0, #FF9145)" stroke-width="2" stroke-linecap="round" stroke-linejoin="round"/>
<path id="Vector_6" d="M11.0833 24.5C10.1168 24.5 9.33333 23.7165 9.33333 22.75V21H12.8333V22.75C12.8333 23.7165 12.0499 24.5 11.0833 24.5Z" stroke="var(--stroke-0, #FF9145)" stroke-width="2" stroke-linecap="round" stroke-linejoin="round"/>
<path id="Vector_7" d="M21.5833 24.5C20.6168 24.5 19.8333 23.7165 19.8333 22.75V21H23.3333V22.75C23.3333 23.7165 22.5499 24.5 21.5833 24.5Z" stroke="var(--stroke-0, #FF9145)" stroke-width="2" stroke-linecap="round" stroke-linejoin="round"/>
</g>
</svg>
