<svg preserveAspectRatio="none" width="100%" height="100%" overflow="visible" style="display: block;" viewBox="0 0 28 28" fill="none" xmlns="http://www.w3.org/2000/svg">
<g id="Frame">
<path id="Vector" d="M8.74972 8.16667C10.0384 8.16667 11.083 7.122 11.083 5.83333C11.083 4.54467 10.0384 3.5 8.74972 3.5C7.46105 3.5 6.41638 4.54467 6.41638 5.83333C6.41638 7.122 7.46105 8.16667 8.74972 8.16667Z" stroke="var(--stroke-0, #3B82F6)" stroke-width="2" stroke-linecap="round" stroke-linejoin="round"/>
<path id="Vector_2" d="M19.2497 8.16667C20.5384 8.16667 21.583 7.122 21.583 5.83333C21.583 4.54467 20.5384 3.5 19.2497 3.5C17.9611 3.5 16.9164 4.54467 16.9164 5.83333C16.9164 7.122 17.9611 8.16667 19.2497 8.16667Z" stroke="var(--stroke-0, #3B82F6)" stroke-width="2" stroke-linecap="round" stroke-linejoin="round"/>
<path id="Vector_3" d="M5.83362 11.6664H11.667L10.5003 24.4997H7.00028L5.83362 11.6664Z" stroke="var(--stroke-0, #3B82F6)" stroke-width="2" stroke-linecap="round" stroke-linejoin="round"/>
<path id="Vector_4" d="M16.3336 11.6664H22.167L21.0003 24.4997H17.5003L16.3336 11.6664Z" stroke="var(--stroke-0, #3B82F6)" stroke-width="2" stroke-linecap="round" stroke-linejoin="round"/>
</g>
</svg>
