<svg preserveAspectRatio="none" width="100%" height="100%" overflow="visible" style="display: block;" viewBox="0 0 13.3333 13.3333" fill="none" xmlns="http://www.w3.org/2000/svg">
<g id="Frame">
<path id="Vector" d="M11.3902 3.33317H5.27908C4.81884 3.33317 4.44575 3.70627 4.44575 4.1665V7.49984C4.44575 7.96007 4.81884 8.33317 5.27908 8.33317H11.3902C11.8504 8.33317 12.2235 7.96007 12.2235 7.49984V4.1665C12.2235 3.70627 11.8504 3.33317 11.3902 3.33317Z" stroke="var(--stroke-0, #FF9145)" stroke-width="0.952381" stroke-linejoin="round"/>
<path id="Vector_2" d="M6.66797 4.99984V6.6665" stroke="var(--stroke-0, #FF9145)" stroke-width="0.952381" stroke-linecap="round"/>
<path id="Vector_3" d="M10.0013 4.99984V6.6665" stroke="var(--stroke-0, #FF9145)" stroke-width="0.952381" stroke-linecap="round"/>
<path id="Vector_4" d="M10.0013 3.33317V1.6665H6.66797V3.33317" stroke="var(--stroke-0, #FF9145)" stroke-width="0.952381" stroke-linecap="round" stroke-linejoin="round"/>
<path id="Vector_5" d="M12.2235 9.99984H3.33464C3.0278 9.99984 2.77908 9.75112 2.77908 9.44428V3.05539C2.77908 2.74857 2.53035 2.49984 2.22352 2.49984H1.11241" stroke="var(--stroke-0, #FF9145)" stroke-width="0.952381" stroke-linecap="round" stroke-linejoin="round"/>
<path id="Vector_6" d="M5.27908 11.6665C4.81883 11.6665 4.44575 11.2934 4.44575 10.8332V9.99984H6.11241V10.8332C6.11241 11.2934 5.73933 11.6665 5.27908 11.6665Z" stroke="var(--stroke-0, #FF9145)" stroke-width="0.952381" stroke-linecap="round" stroke-linejoin="round"/>
<path id="Vector_7" d="M10.2791 11.6665C9.81883 11.6665 9.44575 11.2934 9.44575 10.8332V9.99984H11.1124V10.8332C11.1124 11.2934 10.7393 11.6665 10.2791 11.6665Z" stroke="var(--stroke-0, #FF9145)" stroke-width="0.952381" stroke-linecap="round" stroke-linejoin="round"/>
</g>
</svg>
