<svg preserveAspectRatio="none" width="100%" height="100%" overflow="visible" style="display: block;" viewBox="0 0 16.7048 15.904" fill="none" xmlns="http://www.w3.org/2000/svg">
<g id="Group 60">
<path id="Vector 1" d="M0.752 13.4793V14.352C0.752 14.7938 1.11017 15.152 1.552 15.152C4.64479 15.152 7.152 12.6448 7.152 9.552V2.352C7.152 1.46834 6.43565 0.752 5.552 0.752H2.352C1.46834 0.752 0.752 1.46835 0.752 2.352V6.152C0.752 7.14611 1.55789 7.952 2.552 7.952C2.88337 7.952 3.152 8.22063 3.152 8.552V11.0793C3.152 11.5211 2.79383 11.8793 2.352 11.8793C1.46834 11.8793 0.752 12.5956 0.752 13.4793Z" stroke="var(--stroke-0, #86909C)" stroke-width="1.504"/>
<path id="Vector 2" d="M9.55278 13.4793V14.352C9.55278 14.7938 9.91095 15.152 10.3528 15.152C13.4456 15.152 15.9528 12.6448 15.9528 9.552V2.352C15.9528 1.46834 15.2364 0.752 14.3528 0.752H11.1528C10.2691 0.752 9.55278 1.46835 9.55278 2.352V6.152C9.55278 7.14611 10.3587 7.952 11.3528 7.952C11.6842 7.952 11.9528 8.22063 11.9528 8.552V11.0793C11.9528 11.5211 11.5946 11.8793 11.1528 11.8793C10.2691 11.8793 9.55278 12.5956 9.55278 13.4793Z" stroke="var(--stroke-0, #86909C)" stroke-width="1.504"/>
</g>
</svg>
