<svg preserveAspectRatio="none" width="100%" height="100%" overflow="visible" style="display: block;" viewBox="0 0 18 18" fill="none" xmlns="http://www.w3.org/2000/svg">
<g id="Frame">
<path id="Vector" d="M11.4044 8.72662e-09C12.4143 -3.82285e-08 13.3828 0.395171 14.097 1.09861C14.8112 1.80205 15.2126 2.75617 15.2129 3.75114V4.78748C15.2129 4.87227 15.196 4.95623 15.1631 5.03456C15.1302 5.1129 15.0819 5.18408 15.0211 5.24403C14.9602 5.30399 14.888 5.35155 14.8085 5.384C14.729 5.41645 14.6437 5.43315 14.5577 5.43315C14.4716 5.43315 14.3864 5.41645 14.3069 5.384C14.2274 5.35155 14.1552 5.30399 14.0943 5.24403C14.0335 5.18408 13.9852 5.1129 13.9523 5.03456C13.9194 4.95623 13.9024 4.87227 13.9025 4.78748V3.75114C13.9022 3.09859 13.6388 2.47288 13.1704 2.01157C12.7019 1.55025 12.0667 1.29111 11.4044 1.29111H4.89888C3.52991 1.29111 2.41601 2.37703 2.4008 3.72347L2.31071 13.2189C2.30684 13.5445 2.3686 13.8677 2.4924 14.1696C2.61621 14.4715 2.7996 14.7463 3.03195 14.9779C3.26431 15.2095 3.541 15.3933 3.84601 15.5188C4.15101 15.6443 4.47825 15.7089 4.80878 15.7089H11.7659C11.9397 15.7089 12.1064 15.7769 12.2293 15.898C12.3521 16.019 12.4212 16.1832 12.4212 16.3544C12.4212 16.5257 12.3521 16.6899 12.2293 16.8109C12.1064 16.932 11.9397 17 11.7659 17H4.80878C4.30497 17 3.80617 16.9016 3.34125 16.7103C2.87633 16.5191 2.45454 16.2389 2.10032 15.8859C1.74609 15.533 1.46646 15.1143 1.27763 14.6541C1.0888 14.1939 0.994519 13.7014 1.00025 13.2051L1.09034 3.70848C1.10204 2.72093 1.50846 1.77773 2.22143 1.08349C2.93441 0.389243 3.89645 -6.73008e-05 4.89888 8.72662e-09H11.4044ZM15.0398 7.58527C15.077 7.58527 15.1127 7.59985 15.139 7.62579C15.1654 7.65173 15.1802 7.68692 15.1802 7.72361V9.3398H17.5776C17.8116 9.3398 18 9.5254 18 9.75595V13.6754C18 13.9071 17.8116 14.0938 17.5776 14.0938H15.179V16.7337C15.179 16.7704 15.1642 16.8056 15.1379 16.8315C15.1115 16.8575 15.0758 16.872 15.0386 16.872H14.0522C14.015 16.872 13.9793 16.8575 13.9529 16.8315C13.9266 16.8056 13.9118 16.7704 13.9118 16.7337V14.0938H11.5144C11.4588 14.0938 11.4038 14.083 11.3525 14.0621C11.3011 14.0411 11.2545 14.0103 11.2153 13.9716C11.176 13.9328 11.145 13.8868 11.1238 13.8362C11.1026 13.7855 11.0918 13.7313 11.092 13.6765V9.7571C11.092 9.5254 11.2792 9.3398 11.5144 9.3398H13.9118V7.72476C13.9118 7.68807 13.9266 7.65288 13.9529 7.62694C13.9793 7.601 14.015 7.58643 14.0522 7.58643H15.0398V7.58527ZM12.3603 10.5894V12.8431H13.9118V10.5894H12.3603ZM15.1802 10.5894V12.8431H16.7317V10.5894H15.1802ZM8.38213 4.61802C8.41147 4.61848 8.44002 4.62748 8.46417 4.64389C8.48832 4.6603 8.507 4.68339 8.51786 4.71025L10.2144 9.54845H6.75575L6.17775 11.1912C6.16758 11.218 6.14939 11.2412 6.12558 11.2577C6.10177 11.2741 6.07345 11.2831 6.04436 11.2834H5.07321C5.05081 11.2835 5.0287 11.2783 5.00874 11.2682C4.98879 11.2582 4.97156 11.2436 4.9585 11.2257C4.94545 11.2077 4.93694 11.1869 4.93369 11.1651C4.93044 11.1433 4.93254 11.121 4.93983 11.1001L7.18049 4.71025C7.19065 4.68339 7.20884 4.66021 7.23265 4.64374C7.25647 4.62728 7.28478 4.61831 7.31387 4.61802H8.38096H8.38213ZM7.09507 8.57551H8.6021L7.84859 6.42673L7.09507 8.57551Z" fill="var(--fill-0, #86909C)"/>
</g>
</svg>
