<svg preserveAspectRatio="none" width="100%" height="100%" overflow="visible" style="display: block;" viewBox="0 0 26 27.95" fill="none" xmlns="http://www.w3.org/2000/svg">
<g id="Group 26">
<path id="Rectangle 7" d="M10.4111 3.17402C11.9853 2.15083 14.0147 2.15083 15.5889 3.17402L21.6787 7.13203C23.5942 8.37709 24.7498 10.5067 24.75 12.7912V21.2199C24.75 23.6602 22.9008 25.7036 20.4727 25.9465L16.458 26.3479C14.1586 26.5778 11.8414 26.5778 9.54199 26.3479L5.52734 25.9465C3.09915 25.7036 1.25 23.6602 1.25 21.2199V12.7912C1.25016 10.5067 2.40582 8.37709 4.32129 7.13203L10.4111 3.17402Z" stroke="var(--stroke-0, #0C1015)" stroke-width="2.5"/>
<path id="Rectangle 11" d="M11.7 14.9502C11.7 14.2322 12.282 13.6502 13 13.6502C13.718 13.6502 14.3 14.2322 14.3 14.9502V20.1502C14.3 20.8682 13.718 21.4502 13 21.4502C12.282 21.4502 11.7 20.8682 11.7 20.1502V14.9502Z" fill="var(--fill-0, #0C1015)"/>
</g>
</svg>
