<svg preserveAspectRatio="none" width="100%" height="100%" overflow="visible" style="display: block;" viewBox="0 0 26 27.95" fill="none" xmlns="http://www.w3.org/2000/svg">
<g id="Group 26">
<path id="Rectangle 7" d="M0 12.7917C0 10.0839 1.36975 7.55986 3.64009 6.08414L9.73007 2.12565C11.7185 0.833199 14.2815 0.833199 16.2699 2.12565L22.3599 6.08413C24.6302 7.55986 26 10.0839 26 12.7917V21.2203C26 24.3028 23.6642 26.8838 20.597 27.1905L16.5821 27.592C14.2 27.8302 11.8 27.8302 9.41787 27.592L5.40297 27.1905C2.33576 26.8838 0 24.3028 0 21.2203V12.7917Z" fill="var(--fill-0, #0C1015)"/>
<path id="Rectangle 11" d="M15.5992 16.2504C16.3172 16.2504 16.8992 16.8324 16.8992 17.5504C16.8992 18.2684 16.3172 18.8504 15.5992 18.8504L10.3992 18.8504C9.68125 18.8504 9.09922 18.2684 9.09922 17.5504C9.09922 16.8324 9.68125 16.2504 10.3992 16.2504L15.5992 16.2504Z" fill="var(--fill-0, white)"/>
</g>
</svg>
