<svg preserveAspectRatio="none" width="100%" height="100%" overflow="visible" style="display: block;" viewBox="0 0 28.5957 28" fill="none" xmlns="http://www.w3.org/2000/svg">
<g id="Group 24">
<path id="Rectangle 9" d="M11.9814 1.57422C14.3153 1.36206 16.6641 1.36204 18.998 1.57422L20.2978 1.69238C24.2894 2.05549 27.3455 5.4021 27.3457 9.41016V14.9287C27.3456 18.3578 24.7831 21.2297 21.4023 21.5576C18.9681 21.7935 16.6308 21.9844 15.4892 21.9844C14.791 21.9844 13.8388 21.8519 13.0117 21.7051C12.609 21.6336 12.2544 21.5625 12.0009 21.5088C11.8745 21.482 11.7734 21.4597 11.705 21.4443C11.671 21.4367 11.6449 21.4307 11.6279 21.4268C11.6196 21.4248 11.6133 21.4228 11.6093 21.4219C11.6074 21.4214 11.6052 21.4221 11.6044 21.4219V21.4209L11.1787 21.3213L10.7841 21.5088L4.48043 24.4941C3.84559 24.7949 3.18271 24.1366 3.47945 23.5L5.30269 19.5928L5.62007 18.9131L5.16988 18.3135L4.98336 18.0645C4.10715 16.8962 3.63287 15.475 3.63277 14.0146V9.41016C3.63291 5.40195 6.68982 2.05527 10.6816 1.69238L11.9814 1.57422Z" stroke="var(--stroke-0, #0C1015)" stroke-width="2.5"/>
<path id="Union" d="M11.4984 9.71134C12.4855 9.71134 13.2865 10.5124 13.2865 11.4994C13.2862 12.4863 12.4853 13.2865 11.4984 13.2865C10.5117 13.2863 9.71153 12.4861 9.71129 11.4994C9.71129 10.5125 10.5116 9.7116 11.4984 9.71134ZM19.8382 9.71134C20.8252 9.71147 21.6254 10.5124 21.6254 11.4994C21.6251 12.4862 20.8251 13.2864 19.8382 13.2865C18.8513 13.2865 18.0514 12.4863 18.0511 11.4994C18.0511 10.5124 18.8512 9.71134 19.8382 9.71134Z" fill="var(--fill-0, #0C1015)"/>
</g>
</svg>
