<svg preserveAspectRatio="none" width="100%" height="100%" overflow="visible" style="display: block;" viewBox="0 0 28.5957 28" fill="none" xmlns="http://www.w3.org/2000/svg">
<g id="Group 24">
<path id="Rectangle 9" d="M2.38294 9.41042C2.38294 4.7556 5.9324 0.868811 10.5681 0.447382L11.8679 0.329221C14.2772 0.110192 16.7014 0.110192 19.1107 0.329221L20.4105 0.447382C25.0462 0.868811 28.5957 4.75559 28.5957 9.41042V11.9149V14.9286C28.5957 18.9852 25.5602 22.4105 21.5224 22.8018C19.1037 23.0362 16.703 23.234 15.4893 23.234C13.8607 23.234 11.3191 22.6383 11.3191 22.6383L5.01534 25.6243C3.32217 26.4263 1.55452 24.6688 2.3468 22.971L4.17017 19.0638L3.98294 18.8142C2.94436 17.4294 2.38294 15.7451 2.38294 14.0142V11.9149V9.41042Z" fill="var(--fill-0, #0C1015)"/>
<path id="Rectangle 8" d="M21.0959 9.78536C20.1615 10.483 19.6223 10.8856 18.7175 11.5611C18.6639 11.6011 18.6637 11.6814 18.7173 11.7214L21.0959 13.4996" stroke="var(--stroke-0, white)" stroke-width="2.5" stroke-linecap="round"/>
<path id="Union" d="M11.4984 9.71134C12.4855 9.71134 13.2865 10.5124 13.2865 11.4994C13.2862 12.4863 12.4853 13.2865 11.4984 13.2865C10.5117 13.2863 9.71153 12.4861 9.71129 11.4994C9.71129 10.5125 10.5116 9.7116 11.4984 9.71134Z" fill="var(--fill-0, white)"/>
</g>
</svg>
